<svg xmlns="http://www.w3.org/2000/svg" viewBox="0 0 64 64"><rect width="64" height="64" rx="10" fill="#1B2B5E"/><line x1="38.5" y1="32.0" x2="57.0" y2="32.0" stroke="#CC1E1E" stroke-width="1.6" stroke-linecap="round"/><line x1="38.0" y1="34.5" x2="55.1" y2="41.6" stroke="#CC1E1E" stroke-width="1.6" stroke-linecap="round"/><line x1="36.6" y1="36.6" x2="49.7" y2="49.7" stroke="#CC1E1E" stroke-width="1.6" stroke-linecap="round"/><line x1="34.5" y1="38.0" x2="41.6" y2="55.1" stroke="#CC1E1E" stroke-width="1.6" stroke-linecap="round"/><line x1="32.0" y1="38.5" x2="32.0" y2="57.0" stroke="#CC1E1E" stroke-width="1.6" stroke-linecap="round"/><line x1="29.5" y1="38.0" x2="22.4" y2="55.1" stroke="#CC1E1E" stroke-width="1.6" stroke-linecap="round"/><line x1="27.4" y1="36.6" x2="14.3" y2="49.7" stroke="#CC1E1E" stroke-width="1.6" stroke-linecap="round"/><line x1="26.0" y1="34.5" x2="8.9" y2="41.6" stroke="#CC1E1E" stroke-width="1.6" stroke-linecap="round"/><line x1="25.5" y1="32.0" x2="7.0" y2="32.0" stroke="#CC1E1E" stroke-width="1.6" stroke-linecap="round"/><line x1="26.0" y1="29.5" x2="8.9" y2="22.4" stroke="#CC1E1E" stroke-width="1.6" stroke-linecap="round"/><line x1="27.4" y1="27.4" x2="14.3" y2="14.3" stroke="#CC1E1E" stroke-width="1.6" stroke-linecap="round"/><line x1="29.5" y1="26.0" x2="22.4" y2="8.9" stroke="#CC1E1E" stroke-width="1.6" stroke-linecap="round"/><line x1="32.0" y1="25.5" x2="32.0" y2="7.0" stroke="#CC1E1E" stroke-width="1.6" stroke-linecap="round"/><line x1="34.5" y1="26.0" x2="41.6" y2="8.9" stroke="#CC1E1E" stroke-width="1.6" stroke-linecap="round"/><line x1="36.6" y1="27.4" x2="49.7" y2="14.3" stroke="#CC1E1E" stroke-width="1.6" stroke-linecap="round"/><line x1="38.0" y1="29.5" x2="55.1" y2="22.4" stroke="#CC1E1E" stroke-width="1.6" stroke-linecap="round"/><circle cx="32" cy="32" r="26" stroke="#CC1E1E" stroke-width="2.5" fill="none"/><circle cx="32" cy="32" r="6.5" fill="#CC1E1E"/><rect x="2" y="57" width="60" height="5" rx="2.5" fill="#1A7A20"/></svg>